<svg xmlns="http://www.w3.org/2000/svg" width="24" height="24" viewBox="0 0 24 24" fill="none" stroke="currentColor" stroke-width="2" stroke-linecap="round" stroke-linejoin="round"><path d="M12.2 2h-.4a2 2 0 0 0-2 2v.2a2 2 0 0 1-1 1.7l-.4.2a2 2 0 0 1-2 0l-.2-.1a2 2 0 0 0-2.7.7l-.2.3a2 2 0 0 0 .7 2.7l.2.1a2 2 0 0 1 1 1.7v.5a2 2 0 0 1-1 1.7l-.2.1a2 2 0 0 0-.7 2.7l.2.3a2 2 0 0 0 2.7.7l.2-.1a2 2 0 0 1 2 0l.4.2a2 2 0 0 1 1 1.7v.2a2 2 0 0 0 2 2h.4a2 2 0 0 0 2-2v-.2a2 2 0 0 1 1-1.7l.4-.2a2 2 0 0 1 2 0l.2.1a2 2 0 0 0 2.7-.7l.2-.3a2 2 0 0 0-.7-2.7l-.2-.1a2 2 0 0 1-1-1.7v-.5a2 2 0 0 1 1-1.7l.2-.1a2 2 0 0 0 .7-2.7l-.2-.3a2 2 0 0 0-2.7-.7l-.2.1a2 2 0 0 1-2 0l-.4-.2a2 2 0 0 1-1-1.7V4a2 2 0 0 0-2-2Z"/><circle cx="12" cy="12" r="3"/></svg>
